<svg width="168" height="30" viewBox="0 0 168 30" fill="none" xmlns="http://www.w3.org/2000/svg">
<g clip-path="url(#clip0_21521_278)">
<path d="M11.0691 6.96516L22.1381 13.175V3.75H0V13.175L11.0691 6.96516Z" fill="#0099FF"/>
<path d="M11.0691 9.40625L0 15.616V25.9284H22.1381V15.616L11.0691 9.40625Z" fill="#0099FF"/>
<path d="M43.3023 18.7408L40.3798 9.31944L37.4311 18.7408H43.3023ZM44.2057 21.5883H36.5279L35.1729 25.9263H31.5069L37.5639 7.29688H43.2756L49.3593 25.9263H45.5604L44.2057 21.5883Z" fill="#333538"/>
<path d="M54.6189 25.9273H51.0588V6.33984H54.6189V25.9273Z" fill="#333538"/>
<path d="M64.1027 23.4784C66.3608 23.4784 67.7424 21.6155 67.7424 18.9541C67.7424 16.2928 66.3608 14.4296 64.1027 14.4296C61.8709 14.4296 60.4896 16.2928 60.4896 18.9541C60.4896 21.6155 61.8712 23.4784 64.1027 23.4784ZM64.1027 11.6621C68.4594 11.6621 71.249 14.4296 71.249 18.9541C71.249 23.4784 68.4597 26.2461 64.1027 26.2461C59.7457 26.2461 56.9564 23.4784 56.9564 18.9541C56.9564 14.4296 59.7457 11.6621 64.1027 11.6621Z" fill="#333538"/>
<path d="M79.9889 23.4784C82.1671 23.4784 83.4954 21.6421 83.4954 18.9541C83.4954 16.2659 82.1671 14.4296 79.9889 14.4296C77.7834 14.4296 76.4556 16.2659 76.4556 18.9541C76.4556 21.6421 77.7834 23.4784 79.9889 23.4784ZM78.8993 11.6621C80.839 11.6621 82.6187 12.6202 83.602 14.5364V11.9815H86.8961V31.2496H83.336V23.7181C82.3266 25.3945 80.6795 26.2461 78.873 26.2461C75.4726 26.2461 72.9221 23.5582 72.9221 18.9541C72.9221 14.3501 75.4726 11.6621 78.8993 11.6621Z" fill="#333538"/>
<path d="M95.0779 23.7714C97.3093 23.7714 98.7708 22.1481 98.7708 20.1254V19.5133L95.5829 19.8326C93.8557 19.9924 92.8197 20.6574 92.8197 21.9351C92.8197 22.9995 93.537 23.7714 95.0779 23.7714ZM95.1311 17.7036L98.7708 17.3307V16.6391C98.7708 15.2019 97.947 14.1903 96.0875 14.1903C94.573 14.1903 93.4042 14.8557 93.2979 16.2928H90.0571C90.1633 12.833 92.9526 11.6621 96.0875 11.6621C100.019 11.6621 102.33 13.525 102.33 17.384V25.9271H99.0097V23.3988C98.1068 25.1553 96.3796 26.2464 93.9356 26.2464C90.8007 26.2464 89.2865 24.4633 89.2865 22.1214C89.2865 19.327 91.518 18.0494 95.1311 17.7036Z" fill="#333538"/>
<path d="M117.26 20.4442C117.26 18.8741 116.224 17.8358 113.966 17.8358H109.37V23.0258H113.78C116.171 23.0258 117.26 22.0407 117.26 20.4442ZM109.37 15.0684H113.621C115.666 15.0684 116.702 14.0837 116.702 12.5933C116.702 11.1293 115.666 10.1978 113.568 10.1978H109.37V15.0683L109.37 15.0684ZM120.979 20.9499C120.979 24.3297 117.898 25.9266 114.126 25.9266H105.651V7.29688H113.94C117.5 7.29688 120.422 8.60084 120.422 11.981C120.422 14.6689 118.589 16.1327 114.923 16.3455C118.296 16.5318 120.979 17.8358 120.979 20.9499Z" fill="#0099FF"/>
<path d="M128.418 23.7714C130.649 23.7714 132.111 22.1481 132.111 20.1254V19.5133L128.923 19.8326C127.196 19.9924 126.159 20.6574 126.159 21.9351C126.159 22.9995 126.877 23.7714 128.418 23.7714ZM128.471 17.7036L132.111 17.3307V16.6391C132.111 15.2019 131.287 14.1903 129.427 14.1903C127.913 14.1903 126.744 14.8557 126.638 16.2928H123.397C123.503 12.833 126.293 11.6621 129.427 11.6621C133.359 11.6621 135.67 13.525 135.67 17.384V25.9271H132.349V23.3988C131.447 25.1553 129.719 26.2464 127.275 26.2464C124.141 26.2464 122.626 24.4633 122.626 22.1214C122.626 19.327 124.858 18.0494 128.471 17.7036Z" fill="#0099FF"/>
<path d="M138.539 11.9814H141.86V14.4298C142.763 12.6201 144.463 11.6621 146.722 11.6621C149.91 11.6621 151.53 13.5517 151.53 17.0382V25.927H147.997V18.1291C147.997 15.8673 147.279 14.5896 145.34 14.5896C143.188 14.5896 142.099 16.1863 142.099 18.5815V25.927H138.539V11.9814Z" fill="#0099FF"/>
<path d="M163.511 25.9274L159.234 20.2854H157.959V25.9274H154.399V6.33984H157.959V17.5174H159.26L163.298 11.9819H167.496L161.784 18.6087L167.894 25.9274H163.511Z" fill="#0099FF"/>
</g>
<defs>
<clipPath id="clip0_21521_278">
<rect width="168" height="30" fill="white"/>
</clipPath>
</defs>
</svg>
